# xmcd
#
# Track frame offsets:
#	180
#	17599
#	34377
#	51771
#	68943
#	85952
#	103174
#	120206
#	136938
#	154021
#	170965
#	187509
#	204029
#	221306
#	238220
#	254683
#	272792
#	289769
#
# Disc length: 4090 seconds
#
# Revision: 0
# Processed by: cddbd v1.5.2PL0 Copyright (c) Steve Scherf et al.
# Submitted via: EasyCDDAExtractor 4.6.0.1
#
DISCID=000ff812
DTITLE=Jürgen Rau - I love a Square Dance night
DYEAR=1999
DGENRE=Square Dance
TTITLE0=City of New Orleans
TTITLE1=The night has 1000 eyes
TTITLE2=Can't help fallin' in love
TTITLE3=Rock me gently
TTITLE4=I want to be back home in
TTITLE5=Moody blue
TTITLE6=Sweet home Alabama
TTITLE7=Rainbow raider
TTITLE8=???
TTITLE9=Don't think twice
TTITLE10=Mountain Music
TTITLE11=Sha boom
TTITLE12=El Paso City
TTITLE13=Achy breaky heart
TTITLE14=It's my party
TTITLE15=Tennessee river
TTITLE16=I love a square dance night
TTITLE17=do wah diddy
EXTD=
EXTT0=
EXTT1=
EXTT2=
EXTT3=
EXTT4=
EXTT5=
EXTT6=
EXTT7=
EXTT8=
EXTT9=
EXTT10=
EXTT11=
EXTT12=
EXTT13=
EXTT14=
EXTT15=
EXTT16=
EXTT17=
PLAYORDER=
